<?xml version="1.0" encoding="UTF-8"?>
<svg id="Capa_2" data-name="Capa 2" xmlns="http://www.w3.org/2000/svg" viewBox="0 0 749.82 305.39">
  <defs>
    <style>
      .cls-1 {
        fill: #fff;
      }
    </style>
  </defs>
  <g id="Capa_1-2" data-name="Capa 1">
    <g>
      <g>
        <path class="cls-1" d="M242.19,95.74c-6.13-7.89-15.41-.41-17.39,4.11-1.98,4.52-35.43,53.53-35.43,53.53,0,0-3.85,6.82-9.12,6-5.27-.82-7.48-6.91-3.38-18.44,4.11-11.52,20.16-58.78,25.63-76.02s1.61-26.5.43-29.5c-1.17-2.99-4.85-9.37-12.57-9.46-7.72-.08-9.33,9.09-10.3,12.35-.97,3.26-25.58,80.14-25.58,80.14,0,0-4.84,20.67-13.08,18.41s-5.35-20.89-4.55-28.41,2.76-56.92,3.81-71.26c1.05-14.35-7.56-29.36-10.32-32.65-2.76-3.29-9.61-5.65-13.15-4.03-3.54,1.61-6.7,5.51-7.02,10.84-.32,5.33-1.9,103.38-1.9,103.38,0,0,.52,16.01-4.71,19.44-5.23,3.43-12.41-.46-14.23-10.26-1.81-9.79-9.01-51.83-11.04-65.38-2.03-13.56-5.88-21.82-12.26-27.37s-11.86-5.64-16.29-3.87c-4.43,1.77-4.75,7.09-4.51,10.61.24,3.52,9.77,80.02,13.37,100.41,3.52,19.93,12.89,48.51,11.85,52.09,1.98,3.16,4.56,6.58,7.91,10.12.41-6.63,3.62-11.92,8.45-12.91,6.35-1.31,13.06,5.3,15.01,14.75,1.16,5.64.35,11-1.84,14.7,1.97,1.13,4.05,2.24,6.23,3.33,4.72-3.86,10.44-6.76,19.55-6.66,14.5.16,21.23,19.58,23.02,24.64,18.14,8.94,30.39,19.19,37.97,35.37,1.36-2.17,2.64-4.43,3.84-6.81,12.85-25.54,9.27-51.36,10.98-67.25,1.71-15.9,25.23-53.75,25.23-53.75,0,0,7.05-12.2,12.21-20.75,5.16-8.54,9.73-19.77,3.17-29.45ZM129.02,184.98c-2.02,11.49-9.91,19.7-17.62,18.34-7.71-1.36-12.32-11.77-10.3-23.25,2.02-11.49,9.91-19.7,17.62-18.34,7.71,1.36,12.32,11.77,10.3,23.25ZM143.95,209.28c-7.79-1.37-12.46-11.9-10.41-23.51s10.02-19.91,17.81-18.54,12.46,11.9,10.41,23.51c-2.04,11.61-10.02,19.91-17.81,18.54ZM172.09,224.93c-5.71,7.41-14.31,10.36-19.22,6.58-4.91-3.78-4.26-12.85,1.44-20.26,5.71-7.41,14.31-10.36,19.22-6.58,4.91,3.78,4.26,12.85-1.44,20.26Z"/>
        <path class="cls-1" d="M148.79,238.38s.02.07.03.1c1.74,4.92,6.76,19.51,3.22,24.74s-16.4,3.79-21.67-1.4-14.93-7.42-19.97-5.3c-5.05,2.13-21.51,4.08-24.28-3.09-2.77-7.17,2.97-16.73,10.66-23.98,3.21-3.02,6.07-6.29,9.44-9.05-2.19-1.1-4.27-2.21-6.23-3.33-1.48,2.5-3.57,4.25-6.13,4.78-6.35,1.31-13.06-5.3-15.01-14.75-.47-2.26-.61-4.48-.48-6.57-3.35-3.53-5.93-6.96-7.91-10.12-.02.08-.05.16-.09.22-1.57,2.45-14.31-30.33-14.31-30.33,0,0-9.25-21.75-20.4-34.54-11.15-12.79-25.39-10.77-28.59-8.87-3.2,1.9-7.59,6.29-7.02,13.08s6.66,21.47,6.66,21.47c0,0,7.25,19.48,14.06,39.66,6.8,20.18,19.91,58.23,32.86,76.83,12.96,18.6,38.68,36.7,70.01,37.45,28.42.68,49.8-10.47,63.12-31.61-7.59-16.18-19.83-26.43-37.97-35.37Z"/>
      </g>
      <g>
        <g>
          <path class="cls-1" d="M295.14,214.3c0,1.78-.22,3.37-.65,4.77-.44,1.41-1.08,2.59-1.93,3.56-.85.97-1.9,1.71-3.14,2.23-1.24.52-2.67.78-4.28.78-1.46,0-2.96-.21-4.48-.62.03-.43.07-.85.11-1.28.04-.42.08-.84.11-1.25.03-.25.12-.46.28-.61.16-.16.4-.23.72-.23.27,0,.62.07,1.05.2.44.13,1.02.2,1.76.2.98,0,1.85-.15,2.62-.44.77-.3,1.41-.75,1.93-1.38.52-.62.91-1.42,1.19-2.39.27-.97.41-2.12.41-3.45v-20.91h4.31v20.82Z"/>
          <path class="cls-1" d="M319.86,202.81v22.48h-2.35c-.56,0-.92-.27-1.06-.82l-.31-2.42c-.98,1.08-2.07,1.95-3.28,2.61-1.21.66-2.6.99-4.17.99-1.23,0-2.31-.2-3.25-.61-.94-.41-1.73-.98-2.36-1.72s-1.11-1.63-1.43-2.69c-.32-1.05-.48-2.21-.48-3.48v-14.34h3.95v14.34c0,1.7.39,3.02,1.17,3.95s1.96,1.4,3.56,1.4c1.17,0,2.26-.28,3.27-.83,1.01-.55,1.95-1.32,2.81-2.3v-16.56h3.95Z"/>
          <path class="cls-1" d="M329.85,206.07c.49-.55,1.01-1.04,1.55-1.49.55-.44,1.13-.82,1.74-1.14.61-.32,1.26-.56,1.95-.73.69-.17,1.43-.26,2.23-.26,1.23,0,2.31.2,3.25.61s1.72.98,2.35,1.73c.63.75,1.11,1.65,1.43,2.7.33,1.05.49,2.21.49,3.48v14.31h-3.97v-14.31c0-1.7-.39-3.02-1.17-3.96-.78-.94-1.96-1.41-3.54-1.41-1.17,0-2.26.28-3.27.84-1.01.56-1.95,1.32-2.81,2.29v16.56h-3.97v-22.48h2.37c.56,0,.91.27,1.04.82l.31,2.44Z"/>
          <path class="cls-1" d="M357.48,225.65c-1.78,0-3.14-.5-4.09-1.49-.95-.99-1.43-2.42-1.43-4.28v-13.76h-2.71c-.24,0-.44-.07-.6-.21-.16-.14-.24-.36-.24-.65v-1.58l3.68-.47.91-6.95c.04-.22.14-.4.3-.54.16-.14.36-.21.61-.21h2v7.75h6.5v2.86h-6.5v13.49c0,.95.23,1.65.69,2.11.46.46,1.05.69,1.78.69.41,0,.77-.06,1.08-.17s.57-.23.79-.37c.22-.13.41-.26.57-.37.16-.11.29-.17.41-.17.21,0,.39.13.55.38l1.15,1.89c-.68.64-1.5,1.14-2.46,1.5-.96.36-1.95.54-2.97.54Z"/>
          <path class="cls-1" d="M375.86,202.45c1.64,0,3.12.27,4.44.82s2.44,1.32,3.37,2.33c.93,1.01,1.65,2.22,2.14,3.65.5,1.43.74,3.02.74,4.78s-.25,3.37-.74,4.79-1.21,2.63-2.14,3.64c-.93,1.01-2.06,1.78-3.37,2.32s-2.8.81-4.44.81-3.15-.27-4.47-.81-2.45-1.31-3.38-2.32c-.93-1.01-1.65-2.22-2.14-3.64s-.74-3.02-.74-4.79.25-3.35.74-4.78c.5-1.43,1.21-2.64,2.14-3.65s2.06-1.78,3.38-2.33,2.81-.82,4.47-.82ZM375.86,222.52c2.22,0,3.88-.74,4.97-2.23s1.64-3.56,1.64-6.22-.55-4.76-1.64-6.26c-1.09-1.49-2.75-2.24-4.97-2.24-1.12,0-2.1.19-2.94.58-.84.38-1.53.94-2.09,1.66s-.97,1.62-1.24,2.67c-.27,1.06-.41,2.25-.41,3.58,0,2.66.55,4.74,1.65,6.22,1.1,1.49,2.78,2.23,5.03,2.23Z"/>
          <path class="cls-1" d="M404.64,206.52c-.18.33-.45.49-.82.49-.22,0-.47-.08-.75-.24-.28-.16-.63-.34-1.03-.54-.41-.2-.89-.38-1.45-.55-.56-.17-1.23-.26-2-.26-.67,0-1.27.09-1.8.26-.53.17-.99.4-1.36.7-.38.3-.67.64-.87,1.03-.2.39-.3.82-.3,1.28,0,.58.17,1.06.5,1.44.33.38.77.72,1.32,1,.55.28,1.17.53,1.86.74s1.41.44,2.14.69,1.45.51,2.14.81c.69.3,1.32.67,1.86,1.11.55.44.99.99,1.32,1.63s.5,1.42.5,2.32c0,1.04-.18,1.99-.55,2.87s-.92,1.64-1.64,2.29c-.72.64-1.61,1.15-2.66,1.52-1.05.37-2.26.55-3.64.55-1.57,0-2.99-.26-4.26-.77-1.27-.51-2.35-1.17-3.24-1.96l.93-1.51c.12-.19.26-.34.42-.44.16-.1.37-.16.62-.16.27,0,.55.1.84.31.3.21.65.44,1.08.69.42.25.94.48,1.54.69.61.21,1.36.31,2.26.31.77,0,1.44-.1,2.02-.3s1.06-.47,1.44-.81c.38-.34.67-.73.85-1.18.18-.44.28-.92.28-1.42,0-.62-.17-1.14-.5-1.54-.33-.41-.77-.75-1.32-1.04-.55-.29-1.17-.54-1.88-.75s-1.42-.44-2.15-.68c-.73-.24-1.45-.51-2.15-.81-.7-.3-1.33-.68-1.88-1.14-.55-.46-.99-1.02-1.32-1.7-.33-.67-.5-1.49-.5-2.45,0-.86.18-1.68.53-2.47.36-.79.87-1.49,1.55-2.09s1.52-1.08,2.51-1.43c.99-.36,2.12-.53,3.4-.53,1.48,0,2.81.23,3.98.7,1.18.47,2.19,1.11,3.05,1.92l-.89,1.44Z"/>
          <path class="cls-1" d="M440.37,222.14c-.49.59-1.07,1.11-1.75,1.54-.68.44-1.41.8-2.19,1.08-.78.28-1.58.49-2.41.63-.83.14-1.65.21-2.46.21-1.55,0-2.98-.26-4.29-.79s-2.44-1.29-3.4-2.31c-.95-1.01-1.7-2.27-2.23-3.76-.53-1.49-.8-3.21-.8-5.15,0-1.57.24-3.03.72-4.39.48-1.36,1.17-2.54,2.08-3.54.9-1,2-1.78,3.31-2.35,1.3-.57,2.77-.85,4.39-.85,1.35,0,2.59.23,3.74.68,1.15.45,2.14,1.1,2.97,1.95.84.85,1.49,1.9,1.96,3.15.47,1.25.71,2.67.71,4.27,0,.62-.07,1.04-.2,1.24-.13.21-.39.31-.75.31h-15.02c.04,1.42.24,2.66.59,3.71.35,1.05.83,1.93,1.45,2.63.62.7,1.36,1.23,2.22,1.58.86.35,1.82.52,2.88.52.99,0,1.85-.11,2.56-.34.72-.23,1.34-.48,1.85-.74s.95-.51,1.3-.74c.35-.23.65-.34.9-.34.33,0,.58.13.75.38l1.11,1.44ZM437.17,211.6c0-.92-.13-1.76-.39-2.52-.26-.76-.64-1.42-1.13-1.98-.5-.55-1.1-.98-1.81-1.29-.71-.3-1.52-.46-2.42-.46-1.89,0-3.39.55-4.49,1.65s-1.79,2.63-2.05,4.58h12.29Z"/>
          <path class="cls-1" d="M449.29,206.07c.49-.55,1.01-1.04,1.55-1.49.55-.44,1.13-.82,1.74-1.14.61-.32,1.26-.56,1.95-.73.69-.17,1.43-.26,2.23-.26,1.23,0,2.31.2,3.25.61s1.72.98,2.35,1.73c.63.75,1.11,1.65,1.43,2.7.33,1.05.49,2.21.49,3.48v14.31h-3.97v-14.31c0-1.7-.39-3.02-1.17-3.96-.78-.94-1.96-1.41-3.54-1.41-1.17,0-2.26.28-3.27.84-1.01.56-1.95,1.32-2.81,2.29v16.56h-3.97v-22.48h2.37c.56,0,.91.27,1.04.82l.31,2.44Z"/>
          <path class="cls-1" d="M497.34,206.8c-.12.16-.24.29-.36.38-.12.09-.28.13-.49.13-.22,0-.47-.09-.73-.28-.27-.18-.6-.39-.99-.61s-.87-.43-1.44-.61c-.57-.18-1.27-.28-2.1-.28-1.11,0-2.09.2-2.93.59s-1.55.96-2.12,1.7c-.57.74-1,1.64-1.29,2.69s-.43,2.23-.43,3.53.16,2.57.47,3.63.75,1.95,1.32,2.66c.57.72,1.26,1.27,2.06,1.64.81.38,1.71.57,2.72.57s1.75-.11,2.37-.34c.62-.23,1.14-.48,1.54-.77.41-.28.75-.54,1.02-.77.27-.23.54-.34.81-.34.33,0,.58.13.75.38l1.11,1.44c-.49.61-1.04,1.12-1.66,1.55-.62.43-1.29.79-2.01,1.08s-1.47.5-2.25.63c-.78.13-1.58.2-2.4.2-1.41,0-2.71-.26-3.92-.78s-2.25-1.27-3.14-2.25c-.89-.98-1.58-2.19-2.09-3.63-.5-1.43-.75-3.07-.75-4.9,0-1.67.23-3.22.7-4.64.47-1.42,1.15-2.64,2.04-3.67.89-1.03,2-1.83,3.31-2.41,1.31-.58,2.81-.87,4.52-.87,1.58,0,2.98.26,4.18.77,1.21.51,2.27,1.23,3.21,2.16l-1.04,1.42Z"/>
          <path class="cls-1" d="M502.31,205.98c1.24-1.2,2.58-2.09,4.02-2.68,1.43-.59,3.03-.89,4.77-.89,1.26,0,2.37.21,3.35.62.98.41,1.8.99,2.46,1.73.67.74,1.17,1.64,1.51,2.69s.51,2.2.51,3.46v14.38h-1.75c-.38,0-.68-.06-.89-.19-.21-.13-.37-.37-.49-.74l-.44-2.13c-.59.55-1.17,1.03-1.73,1.45-.56.42-1.15.78-1.78,1.07-.62.29-1.28.51-1.99.67-.7.16-1.48.23-2.34.23s-1.69-.12-2.46-.37c-.77-.24-1.44-.61-2.01-1.1-.57-.49-1.02-1.11-1.35-1.85-.33-.75-.5-1.63-.5-2.65,0-.89.24-1.74.73-2.56.49-.82,1.28-1.55,2.37-2.19,1.09-.64,2.52-1.16,4.28-1.56,1.76-.41,3.92-.64,6.48-.7v-1.75c0-1.75-.38-3.07-1.13-3.96-.75-.89-1.86-1.34-3.31-1.34-.98,0-1.79.12-2.45.37s-1.23.52-1.71.82c-.48.3-.9.58-1.24.82-.35.24-.69.37-1.03.37-.27,0-.5-.07-.69-.21-.19-.14-.36-.31-.49-.52l-.71-1.27ZM515.07,215.17c-1.82.06-3.37.2-4.65.43-1.28.23-2.32.53-3.13.9-.81.37-1.39.81-1.75,1.31-.36.5-.54,1.07-.54,1.69s.1,1.1.29,1.53c.19.43.46.78.79,1.05.33.27.72.47,1.18.6s.94.19,1.45.19c.7,0,1.33-.07,1.91-.21s1.12-.34,1.63-.61,1-.58,1.46-.95c.47-.37.92-.79,1.36-1.27v-4.66Z"/>
          <path class="cls-1" d="M543.54,192.6v32.69h-2.35c-.56,0-.92-.27-1.07-.82l-.35-2.73c-.96,1.15-2.06,2.09-3.28,2.8-1.23.71-2.65,1.07-4.26,1.07-1.29,0-2.46-.25-3.51-.74-1.05-.5-1.95-1.22-2.69-2.19-.74-.96-1.31-2.16-1.71-3.6s-.6-3.09-.6-4.95c0-1.66.22-3.2.67-4.63.44-1.43,1.08-2.67,1.91-3.72.83-1.05,1.85-1.88,3.05-2.47,1.21-.6,2.56-.9,4.07-.9,1.38,0,2.56.23,3.54.7.98.47,1.86,1.11,2.63,1.94v-12.45h3.95ZM539.59,208.16c-.74-.99-1.54-1.68-2.4-2.07s-1.82-.59-2.88-.59c-2.09,0-3.69.75-4.82,2.24-1.12,1.49-1.69,3.63-1.69,6.39,0,1.46.13,2.72.38,3.76.25,1.04.62,1.9,1.11,2.57s1.09,1.17,1.8,1.48c.71.31,1.52.47,2.42.47,1.3,0,2.44-.3,3.41-.89.97-.59,1.86-1.43,2.67-2.51v-10.85Z"/>
          <path class="cls-1" d="M549.22,205.98c1.24-1.2,2.58-2.09,4.02-2.68,1.43-.59,3.03-.89,4.77-.89,1.26,0,2.37.21,3.35.62.98.41,1.8.99,2.46,1.73.67.74,1.17,1.64,1.51,2.69s.51,2.2.51,3.46v14.38h-1.75c-.38,0-.68-.06-.89-.19-.21-.13-.37-.37-.49-.74l-.44-2.13c-.59.55-1.17,1.03-1.73,1.45-.56.42-1.15.78-1.78,1.07-.62.29-1.28.51-1.99.67-.7.16-1.48.23-2.34.23s-1.69-.12-2.46-.37c-.77-.24-1.44-.61-2.01-1.1-.57-.49-1.02-1.11-1.35-1.85-.33-.75-.5-1.63-.5-2.65,0-.89.24-1.74.73-2.56.49-.82,1.28-1.55,2.37-2.19,1.09-.64,2.52-1.16,4.28-1.56,1.76-.41,3.92-.64,6.48-.7v-1.75c0-1.75-.38-3.07-1.13-3.96-.75-.89-1.86-1.34-3.31-1.34-.98,0-1.79.12-2.45.37s-1.23.52-1.71.82c-.48.3-.9.58-1.24.82-.35.24-.69.37-1.03.37-.27,0-.5-.07-.69-.21-.19-.14-.36-.31-.49-.52l-.71-1.27ZM561.98,215.17c-1.82.06-3.37.2-4.65.43-1.28.23-2.32.53-3.13.9-.81.37-1.39.81-1.75,1.31-.36.5-.54,1.07-.54,1.69s.1,1.1.29,1.53c.19.43.46.78.79,1.05.33.27.72.47,1.18.6s.94.19,1.45.19c.7,0,1.33-.07,1.91-.21s1.12-.34,1.63-.61,1-.58,1.46-.95c.47-.37.92-.79,1.36-1.27v-4.66Z"/>
          <path class="cls-1" d="M582.64,205.98c1.24-1.2,2.58-2.09,4.02-2.68,1.43-.59,3.03-.89,4.77-.89,1.26,0,2.37.21,3.35.62.98.41,1.8.99,2.46,1.73.67.74,1.17,1.64,1.51,2.69s.51,2.2.51,3.46v14.38h-1.75c-.38,0-.68-.06-.89-.19-.21-.13-.37-.37-.49-.74l-.44-2.13c-.59.55-1.17,1.03-1.73,1.45-.56.42-1.15.78-1.78,1.07-.62.29-1.28.51-1.99.67-.7.16-1.48.23-2.34.23s-1.69-.12-2.46-.37c-.77-.24-1.44-.61-2.01-1.1-.57-.49-1.02-1.11-1.35-1.85-.33-.75-.5-1.63-.5-2.65,0-.89.24-1.74.73-2.56.49-.82,1.28-1.55,2.37-2.19,1.09-.64,2.52-1.16,4.28-1.56,1.76-.41,3.92-.64,6.48-.7v-1.75c0-1.75-.38-3.07-1.13-3.96-.75-.89-1.86-1.34-3.31-1.34-.98,0-1.79.12-2.45.37s-1.23.52-1.71.82c-.48.3-.9.58-1.24.82-.35.24-.69.37-1.03.37-.27,0-.5-.07-.69-.21-.19-.14-.36-.31-.49-.52l-.71-1.27ZM595.4,215.17c-1.82.06-3.37.2-4.65.43-1.28.23-2.32.53-3.13.9-.81.37-1.39.81-1.75,1.31-.36.5-.54,1.07-.54,1.69s.1,1.1.29,1.53c.19.43.46.78.79,1.05.33.27.72.47,1.18.6s.94.19,1.45.19c.7,0,1.33-.07,1.91-.21s1.12-.34,1.63-.61,1-.58,1.46-.95c.47-.37.92-.79,1.36-1.27v-4.66Z"/>
          <path class="cls-1" d="M624.08,202.81l-9.17,22.48h-3.55l-9.17-22.48h3.22c.33,0,.59.08.8.24s.35.35.42.58l5.7,14.47c.18.55.33,1.08.47,1.6.13.52.26,1.04.38,1.55.12-.52.24-1.03.38-1.55.13-.52.3-1.05.49-1.6l5.77-14.47c.09-.24.24-.43.44-.59.21-.16.45-.23.73-.23h3.08Z"/>
          <path class="cls-1" d="M645.34,222.14c-.49.59-1.07,1.11-1.75,1.54-.68.44-1.41.8-2.19,1.08-.78.28-1.58.49-2.41.63-.83.14-1.65.21-2.46.21-1.55,0-2.98-.26-4.29-.79s-2.44-1.29-3.4-2.31c-.95-1.01-1.7-2.27-2.23-3.76-.53-1.49-.8-3.21-.8-5.15,0-1.57.24-3.03.72-4.39.48-1.36,1.17-2.54,2.08-3.54.9-1,2-1.78,3.31-2.35,1.3-.57,2.77-.85,4.39-.85,1.35,0,2.59.23,3.74.68,1.15.45,2.14,1.1,2.97,1.95.84.85,1.49,1.9,1.96,3.15.47,1.25.71,2.67.71,4.27,0,.62-.07,1.04-.2,1.24-.13.21-.39.31-.75.31h-15.02c.04,1.42.24,2.66.59,3.71.35,1.05.83,1.93,1.45,2.63.62.7,1.36,1.23,2.22,1.58.86.35,1.82.52,2.88.52.99,0,1.85-.11,2.56-.34.72-.23,1.34-.48,1.85-.74s.95-.51,1.3-.74c.35-.23.65-.34.9-.34.33,0,.58.13.75.38l1.11,1.44ZM642.14,211.6c0-.92-.13-1.76-.39-2.52-.26-.76-.64-1.42-1.13-1.98-.5-.55-1.1-.98-1.81-1.29-.71-.3-1.52-.46-2.42-.46-1.89,0-3.39.55-4.49,1.65s-1.79,2.63-2.05,4.58h12.29Z"/>
          <path class="cls-1" d="M654.26,206.07c.49-.55,1.01-1.04,1.55-1.49.55-.44,1.13-.82,1.74-1.14.61-.32,1.26-.56,1.95-.73.69-.17,1.43-.26,2.23-.26,1.23,0,2.31.2,3.25.61s1.72.98,2.35,1.73c.63.75,1.11,1.65,1.43,2.7.33,1.05.49,2.21.49,3.48v14.31h-3.97v-14.31c0-1.7-.39-3.02-1.17-3.96-.78-.94-1.96-1.41-3.54-1.41-1.17,0-2.26.28-3.27.84-1.01.56-1.95,1.32-2.81,2.29v16.56h-3.97v-22.48h2.37c.56,0,.91.27,1.04.82l.31,2.44Z"/>
          <path class="cls-1" d="M681.89,225.65c-1.78,0-3.14-.5-4.09-1.49-.95-.99-1.43-2.42-1.43-4.28v-13.76h-2.71c-.24,0-.44-.07-.6-.21-.16-.14-.24-.36-.24-.65v-1.58l3.68-.47.91-6.95c.04-.22.14-.4.3-.54.16-.14.36-.21.61-.21h2v7.75h6.5v2.86h-6.5v13.49c0,.95.23,1.65.69,2.11.46.46,1.05.69,1.78.69.41,0,.77-.06,1.08-.17s.57-.23.79-.37c.22-.13.41-.26.57-.37.16-.11.29-.17.41-.17.21,0,.39.13.55.38l1.15,1.89c-.68.64-1.5,1.14-2.46,1.5-.96.36-1.95.54-2.97.54Z"/>
          <path class="cls-1" d="M709.38,202.81v22.48h-2.35c-.56,0-.92-.27-1.06-.82l-.31-2.42c-.98,1.08-2.07,1.95-3.28,2.61-1.21.66-2.6.99-4.17.99-1.23,0-2.31-.2-3.25-.61-.94-.41-1.73-.98-2.36-1.72s-1.11-1.63-1.43-2.69c-.32-1.05-.48-2.21-.48-3.48v-14.34h3.95v14.34c0,1.7.39,3.02,1.17,3.95s1.96,1.4,3.56,1.4c1.17,0,2.26-.28,3.27-.83,1.01-.55,1.95-1.32,2.81-2.3v-16.56h3.95Z"/>
          <path class="cls-1" d="M719.39,207.31c.71-1.54,1.58-2.74,2.62-3.61,1.04-.87,2.3-1.3,3.8-1.3.47,0,.93.05,1.36.16.44.1.82.27,1.17.49l-.29,2.95c-.09.37-.31.55-.67.55-.21,0-.51-.04-.91-.13-.4-.09-.85-.13-1.35-.13-.71,0-1.34.1-1.9.31s-1.05.51-1.49.92-.83.91-1.18,1.51c-.35.6-.66,1.28-.94,2.05v14.2h-3.97v-22.48h2.26c.43,0,.72.08.89.24.16.16.27.44.33.84l.27,3.42Z"/>
          <path class="cls-1" d="M730.86,205.98c1.24-1.2,2.58-2.09,4.02-2.68,1.43-.59,3.03-.89,4.77-.89,1.26,0,2.37.21,3.35.62.98.41,1.8.99,2.46,1.73.67.74,1.17,1.64,1.51,2.69s.51,2.2.51,3.46v14.38h-1.75c-.38,0-.68-.06-.89-.19-.21-.13-.37-.37-.49-.74l-.44-2.13c-.59.55-1.17,1.03-1.73,1.45-.56.42-1.15.78-1.78,1.07-.62.29-1.28.51-1.99.67-.7.16-1.48.23-2.34.23s-1.69-.12-2.46-.37c-.77-.24-1.44-.61-2.01-1.1-.57-.49-1.02-1.11-1.35-1.85-.33-.75-.5-1.63-.5-2.65,0-.89.24-1.74.73-2.56.49-.82,1.28-1.55,2.37-2.19,1.09-.64,2.52-1.16,4.28-1.56,1.76-.41,3.92-.64,6.48-.7v-1.75c0-1.75-.38-3.07-1.13-3.96-.75-.89-1.86-1.34-3.31-1.34-.98,0-1.79.12-2.45.37s-1.23.52-1.71.82c-.48.3-.9.58-1.24.82-.35.24-.69.37-1.03.37-.27,0-.5-.07-.69-.21-.19-.14-.36-.31-.49-.52l-.71-1.27ZM743.62,215.17c-1.82.06-3.37.2-4.65.43-1.28.23-2.32.53-3.13.9-.81.37-1.39.81-1.75,1.31-.36.5-.54,1.07-.54,1.69s.1,1.1.29,1.53c.19.43.46.78.79,1.05.33.27.72.47,1.18.6s.94.19,1.45.19c.7,0,1.33-.07,1.91-.21s1.12-.34,1.63-.61,1-.58,1.46-.95c.47-.37.92-.79,1.36-1.27v-4.66Z"/>
        </g>
        <g>
          <path class="cls-1" d="M346.55,110.29c0,10.11-2.98,17.91-8.94,23.42-5.96,5.51-14.43,8.26-25.4,8.26h-6.87v30.01h-24.44v-90.45h31.31c11.42,0,20,2.5,25.74,7.49,5.73,4.99,8.6,12.09,8.6,21.28ZM305.35,122.05h4.45c3.67,0,6.59-1.03,8.75-3.09,2.17-2.06,3.25-4.91,3.25-8.54,0-6.1-3.38-9.16-10.15-9.16h-6.31v20.79Z"/>
          <path class="cls-1" d="M414.67,171.98h-53.7v-90.45h53.7v19.61h-29.26v14.23h27.1v19.61h-27.1v17.08h29.26v19.92Z"/>
          <path class="cls-1" d="M470.42,171.98h-24.44v-70.47h-22.09v-19.98h68.55v19.98h-22.03v70.47Z"/>
          <path class="cls-1" d="M564.52,144.51c0,5.61-1.42,10.59-4.27,14.94-2.85,4.35-6.95,7.73-12.31,10.15-5.36,2.41-11.65,3.62-18.87,3.62-6.02,0-11.07-.42-15.16-1.27-4.08-.85-8.33-2.32-12.75-4.42v-21.78c4.66,2.39,9.51,4.26,14.54,5.6,5.03,1.34,9.65,2.01,13.86,2.01,3.63,0,6.29-.63,7.98-1.89,1.69-1.26,2.54-2.88,2.54-4.86,0-1.24-.34-2.32-1.02-3.25-.68-.93-1.77-1.87-3.28-2.81-1.51-.95-5.52-2.89-12.03-5.82-5.9-2.68-10.32-5.28-13.27-7.8-2.95-2.52-5.14-5.4-6.56-8.66-1.42-3.26-2.13-7.12-2.13-11.57,0-8.33,3.03-14.83,9.1-19.49,6.06-4.66,14.39-6.99,25-6.99,9.36,0,18.91,2.17,28.65,6.5l-7.49,18.87c-8.46-3.88-15.76-5.82-21.9-5.82-3.18,0-5.49.56-6.93,1.67-1.44,1.11-2.17,2.5-2.17,4.15,0,1.77.92,3.36,2.75,4.76,1.83,1.4,6.82,3.96,14.94,7.67,7.8,3.51,13.21,7.27,16.24,11.29,3.03,4.02,4.55,9.09,4.55,15.19Z"/>
          <path class="cls-1" d="M664.63,171.98h-32.05l-33.04-63.73h-.56c.78,10.02,1.18,17.67,1.18,22.95v40.77h-21.65v-90.45h31.93l32.92,62.86h.37c-.58-9.12-.87-16.44-.87-21.96v-40.9h21.78v90.45Z"/>
          <path class="cls-1" d="M749.82,110.29c0,10.11-2.98,17.91-8.94,23.42-5.96,5.51-14.43,8.26-25.4,8.26h-6.87v30.01h-24.44v-90.45h31.31c11.42,0,20,2.5,25.74,7.49,5.73,4.99,8.6,12.09,8.6,21.28ZM708.62,122.05h4.45c3.67,0,6.59-1.03,8.75-3.09,2.17-2.06,3.25-4.91,3.25-8.54,0-6.1-3.38-9.16-10.15-9.16h-6.31v20.79Z"/>
        </g>
      </g>
    </g>
  </g>
</svg>